<svg id="Layer_1" data-name="Layer 1" xmlns="http://www.w3.org/2000/svg" xmlns:xlink="http://www.w3.org/1999/xlink" viewBox="0 0 36 36"><defs><style>.cls-1{fill:#c4c4c4;stroke:#f8bb54;stroke-width:0.32px;}.cls-2{mask:url(#mask);}.cls-3{fill:none;stroke:#6837b7;stroke-miterlimit:10;stroke-width:0.36px;}</style><mask id="mask" x="-0.03" y="2.57" width="65.99" height="37.82" maskUnits="userSpaceOnUse"><g id="mask0_627_15282" data-name="mask0 627 15282"><circle class="cls-1" cx="18.37" cy="18.27" r="11.46"/></g></mask></defs><g class="cls-2"><path class="cls-3" d="M0,11.52s5.41-1,6.81-4.51,6.83-4.26,6.83-4.26"/><path class="cls-3" d="M0,13.21s6.64-1.16,8.35-5.39c1.63-4,8.37-5.07,8.37-5.07"/><path class="cls-3" d="M0,14.9s7.86-1.32,9.88-6.27C11.81,3.9,19.8,2.75,19.8,2.75"/><path class="cls-3" d="M0,16.58s9.09-1.47,11.42-7.14C13.65,4,22.87,2.75,22.87,2.75"/><path class="cls-3" d="M0,18.27s10.31-1.62,13-8c2.52-6.1,13-7.5,13-7.5"/><path class="cls-3" d="M0,20s11.54-1.78,14.5-8.9C17.33,4.27,29,2.75,29,2.75"/><path class="cls-3" d="M0,21.65s12.76-1.94,16-9.78C19.16,4.4,32.1,2.75,32.1,2.75"/><path class="cls-3" d="M0,23.33s14-2.09,17.58-10.66C21,4.53,35.18,2.75,35.18,2.75"/><path class="cls-3" d="M0,25s15.21-2.24,19.12-11.53C22.84,4.65,38.25,2.75,38.25,2.75"/><path class="cls-3" d="M0,26.71s16.44-2.4,20.66-12.41c4-9.53,20.67-11.55,20.67-11.55"/><path class="cls-3" d="M0,28.4s17.67-2.56,22.2-13.29C26.51,4.9,44.41,2.75,44.41,2.75"/><path class="cls-3" d="M0,30.09s18.89-2.72,23.73-14.17C28.34,5,47.48,2.75,47.48,2.75"/><path class="cls-3" d="M0,31.77s20.12-2.87,25.28-15c4.9-11.57,25.28-14,25.28-14"/><path class="cls-3" d="M0,33.46s21.35-3,26.82-15.92C32,5.27,53.63,2.75,53.63,2.75"/><path class="cls-3" d="M0,35.15S22.57,32,28.35,18.35C33.85,5.4,56.71,2.75,56.71,2.75"/><path class="cls-3" d="M0,36.83s23.8-3.34,29.89-17.67c5.8-13.64,29.9-16.41,29.9-16.41"/><path class="cls-3" d="M0,38.52S25,35,31.43,20C37.53,5.65,62.87,2.75,62.87,2.75"/><path class="cls-3" d="M0,40.21s26.25-3.65,33-19.43c6.39-15,33-18,33-18"/></g></svg>